<?xml version="1.0" encoding="UTF-8" standalone="no"?>
<!DOCTYPE svg PUBLIC "-//W3C//DTD SVG 1.0//EN"
 "http://www.w3.org/TR/2001/REC-SVG-20010904/DTD/svg10.dtd" [
 <!ATTLIST svg xmlns:xlink CDATA #FIXED "http://www.w3.org/1999/xlink">
]>
<!-- Generated by Graphviz version 2.20.2 (Tue Feb &#160;9 23:19:36 UTC 2010)
     For user: (root) root -->
<!-- Title: d1e508 Pages: 1 -->
<svg width="1922pt" height="523pt"
 viewBox="0.00 0.00 1922.00 523.00" xmlns="http://www.w3.org/2000/svg" xmlns:xlink="http://www.w3.org/1999/xlink">
<g id="graph0" class="graph" transform="scale(1 1) rotate(0) translate(4 519)">
<title>d1e508</title>
<polygon style="fill:white;stroke:white;" points="-4,4 -4,-519 1918,-519 1918,4 -4,4"/>
<text text-anchor="middle" x="957" y="-7.9" style="font-family:Times New Roman;font-size:14.00px;">Powered by http://rhizomik.net</text>
<!-- http://spectre.com -->
<g id="node1" class="node"><title>http://spectre.com</title>
<a xlink:href="http://spectre.com" xlink:title="http://spectre.com">
<polygon style="fill:none;stroke:black;" points="1252,-221.5 1148,-221.5 1148,-200.5 1252,-200.5 1252,-221.5"/>
<text text-anchor="middle" x="1200" y="-208.5" style="font-family:Times New Roman;font-size:10.00px;fill:blue;">http://spectre.com</text>
</a>
</g>
<!-- http://bond007.org/RDF/mes_donnees.rdf#ernst -->
<g id="node2" class="node"><title>http://bond007.org/RDF/mes_donnees.rdf#ernst</title>
<a xlink:href="http://bond007.org/RDF/mes_donnees.rdf#ernst" xlink:title="foaf:Person:\nhttp://bond007.org/RDF/mes_donnees.rdf#ernst">
<polygon style="fill:none;stroke:black;" points="928,-228 682,-228 682,-194 928,-194 928,-228"/>
<text text-anchor="middle" x="805" y="-215" style="font-family:Times New Roman;font-size:10.00px;fill:blue;">foaf:Person:</text>
<text text-anchor="middle" x="805" y="-202" style="font-family:Times New Roman;font-size:10.00px;fill:blue;">http://bond007.org/RDF/mes_donnees.rdf#ernst</text>
</a>
</g>
<!-- http://bond007.org/RDF/mes_donnees.rdf#ernst&#45;&gt;http://spectre.com -->
<g id="edge2" class="edge"><title>http://bond007.org/RDF/mes_donnees.rdf#ernst&#45;&gt;http://spectre.com</title>
<path style="fill:none;stroke:blue;" d="M928,-211C998,-211 1082,-211 1137,-211"/>
<polygon style="fill:blue;stroke:blue;" points="1137,-214.5 1147,-211 1137,-207.5 1137,-214.5"/>
<text text-anchor="middle" x="1000" y="-214.5" style="font-family:Times New Roman;font-size:10.00px;">foaf:workplaceHomepage</text>
</g>
<!-- &quot;Ernst Stavro Blofeld&quot; -->
<g id="node5" class="node"><title>&quot;Ernst Stavro Blofeld&quot;</title>
<text text-anchor="middle" x="1200" y="-258.5" style="font-family:Times New Roman;font-size:10.00px;">&quot;Ernst Stavro Blofeld&quot;</text>
</g>
<!-- http://bond007.org/RDF/mes_donnees.rdf#ernst&#45;&gt;&quot;Ernst Stavro Blofeld&quot; -->
<g id="edge4" class="edge"><title>http://bond007.org/RDF/mes_donnees.rdf#ernst&#45;&gt;&quot;Ernst Stavro Blofeld&quot;</title>
<path style="fill:none;stroke:blue;" d="M928,-228C932,-228 935,-229 939,-229 1004,-237 1078,-246 1131,-253"/>
<polygon style="fill:blue;stroke:blue;" points="1130.7,-256.488 1141,-254 1131.4,-249.522 1130.7,-256.488"/>
<text text-anchor="middle" x="1000" y="-244.5" style="font-family:Times New Roman;font-size:10.00px;">foaf:name</text>
</g>
<!-- http://bond007.org/RDF/mes_donnees.rdf#auric -->
<g id="node6" class="node"><title>http://bond007.org/RDF/mes_donnees.rdf#auric</title>
<a xlink:href="http://bond007.org/RDF/mes_donnees.rdf#auric" xlink:title="foaf:Person:\nhttp://bond007.org/RDF/mes_donnees.rdf#auric">
<polygon style="fill:none;stroke:black;" points="927,-142 683,-142 683,-108 927,-108 927,-142"/>
<text text-anchor="middle" x="805" y="-129" style="font-family:Times New Roman;font-size:10.00px;fill:blue;">foaf:Person:</text>
<text text-anchor="middle" x="805" y="-116" style="font-family:Times New Roman;font-size:10.00px;fill:blue;">http://bond007.org/RDF/mes_donnees.rdf#auric</text>
</a>
</g>
<!-- &quot;Auric Goldfinger&quot; -->
<g id="node8" class="node"><title>&quot;Auric Goldfinger&quot;</title>
<text text-anchor="middle" x="1200" y="-102.5" style="font-family:Times New Roman;font-size:10.00px;">&quot;Auric Goldfinger&quot;</text>
</g>
<!-- http://bond007.org/RDF/mes_donnees.rdf#auric&#45;&gt;&quot;Auric Goldfinger&quot; -->
<g id="edge6" class="edge"><title>http://bond007.org/RDF/mes_donnees.rdf#auric&#45;&gt;&quot;Auric Goldfinger&quot;</title>
<path style="fill:none;stroke:blue;" d="M928,-119C999,-115 1084,-111 1140,-108"/>
<polygon style="fill:blue;stroke:blue;" points="1140,-111.5 1150,-108 1140,-104.5 1140,-111.5"/>
<text text-anchor="middle" x="1000" y="-123.5" style="font-family:Times New Roman;font-size:10.00px;">foaf:name</text>
</g>
<!-- http://bond007.org/RDF/mes_donnees.rdf#eve -->
<g id="node9" class="node"><title>http://bond007.org/RDF/mes_donnees.rdf#eve</title>
<a xlink:href="http://bond007.org/RDF/mes_donnees.rdf#eve" xlink:title="foaf:Person:\nhttp://bond007.org/RDF/mes_donnees.rdf#eve">
<polygon style="fill:none;stroke:black;" points="924,-456 686,-456 686,-422 924,-422 924,-456"/>
<text text-anchor="middle" x="805" y="-443" style="font-family:Times New Roman;font-size:10.00px;fill:blue;">foaf:Person:</text>
<text text-anchor="middle" x="805" y="-430" style="font-family:Times New Roman;font-size:10.00px;fill:blue;">http://bond007.org/RDF/mes_donnees.rdf#eve</text>
</a>
</g>
<!-- &quot;00 44 6 10 65 34 22&quot; -->
<g id="node11" class="node"><title>&quot;00 44 6 10 65 34 22&quot;</title>
<text text-anchor="middle" x="1200" y="-494.5" style="font-family:Times New Roman;font-size:10.00px;">&quot;00 44 6 10 65 34 22&quot;</text>
</g>
<!-- http://bond007.org/RDF/mes_donnees.rdf#eve&#45;&gt;&quot;00 44 6 10 65 34 22&quot; -->
<g id="edge8" class="edge"><title>http://bond007.org/RDF/mes_donnees.rdf#eve&#45;&gt;&quot;00 44 6 10 65 34 22&quot;</title>
<path style="fill:none;stroke:blue;" d="M921,-456C988,-465 1072,-478 1130,-487"/>
<polygon style="fill:blue;stroke:blue;" points="1129.7,-490.488 1140,-488 1130.4,-483.522 1129.7,-490.488"/>
<text text-anchor="middle" x="1000" y="-477.5" style="font-family:Times New Roman;font-size:10.00px;">foaf:phone</text>
</g>
<!-- http://bond007.org/RDF/mes_donnees.rdf#me -->
<g id="node13" class="node"><title>http://bond007.org/RDF/mes_donnees.rdf#me</title>
<a xlink:href="http://bond007.org/RDF/mes_donnees.rdf#me" xlink:title="foaf:Person:\nhttp://bond007.org/RDF/mes_donnees.rdf#me">
<polygon style="fill:none;stroke:black;" points="573,-315 337,-315 337,-281 573,-281 573,-315"/>
<text text-anchor="middle" x="455" y="-302" style="font-family:Times New Roman;font-size:10.00px;fill:blue;">foaf:Person:</text>
<text text-anchor="middle" x="455" y="-289" style="font-family:Times New Roman;font-size:10.00px;fill:blue;">http://bond007.org/RDF/mes_donnees.rdf#me</text>
</a>
</g>
<!-- http://bond007.org/RDF/mes_donnees.rdf#eve&#45;&gt;http://bond007.org/RDF/mes_donnees.rdf#me -->
<g id="edge10" class="edge"><title>http://bond007.org/RDF/mes_donnees.rdf#eve&#45;&gt;http://bond007.org/RDF/mes_donnees.rdf#me</title>
<path style="fill:none;stroke:blue;" d="M685,-434C656,-430 624,-423 597,-412 549,-391 504,-349 478,-323"/>
<polygon style="fill:blue;stroke:blue;" points="480.219,-320.221 471,-315 474.951,-324.831 480.219,-320.221"/>
<text text-anchor="middle" x="634" y="-434.5" style="font-family:Times New Roman;font-size:10.00px;">foaf:knows</text>
</g>
<!-- &quot;Eve Moneypenny&quot; -->
<g id="node15" class="node"><title>&quot;Eve Moneypenny&quot;</title>
<text text-anchor="middle" x="1200" y="-436.5" style="font-family:Times New Roman;font-size:10.00px;">&quot;Eve Moneypenny&quot;</text>
</g>
<!-- http://bond007.org/RDF/mes_donnees.rdf#eve&#45;&gt;&quot;Eve Moneypenny&quot; -->
<g id="edge12" class="edge"><title>http://bond007.org/RDF/mes_donnees.rdf#eve&#45;&gt;&quot;Eve Moneypenny&quot;</title>
<path style="fill:none;stroke:blue;" d="M925,-439C995,-439 1080,-439 1137,-439"/>
<polygon style="fill:blue;stroke:blue;" points="1137,-442.5 1147,-439 1137,-435.5 1137,-442.5"/>
<text text-anchor="middle" x="1000" y="-442.5" style="font-family:Times New Roman;font-size:10.00px;">foaf:name</text>
</g>
<!-- http://bond007.org/RDF/mes_donnees.rdf#me&#45;&gt;http://bond007.org/RDF/mes_donnees.rdf#ernst -->
<g id="edge28" class="edge"><title>http://bond007.org/RDF/mes_donnees.rdf#me&#45;&gt;http://bond007.org/RDF/mes_donnees.rdf#ernst</title>
<path style="fill:none;stroke:blue;" d="M518,-281C563,-269 626,-252 682,-239 694,-236 705,-233 717,-231"/>
<polygon style="fill:blue;stroke:blue;" points="718.427,-234.226 727,-228 716.416,-227.521 718.427,-234.226"/>
<text text-anchor="middle" x="634" y="-261.5" style="font-family:Times New Roman;font-size:10.00px;">foaf:knows</text>
</g>
<!-- http://bond007.org/RDF/mes_donnees.rdf#me&#45;&gt;http://bond007.org/RDF/mes_donnees.rdf#auric -->
<g id="edge30" class="edge"><title>http://bond007.org/RDF/mes_donnees.rdf#me&#45;&gt;http://bond007.org/RDF/mes_donnees.rdf#auric</title>
<path style="fill:none;stroke:blue;" d="M486,-281C515,-265 559,-242 597,-223 652,-195 716,-166 758,-146"/>
<polygon style="fill:blue;stroke:blue;" points="759.283,-149.26 767,-142 756.44,-142.863 759.283,-149.26"/>
<text text-anchor="middle" x="634" y="-226.5" style="font-family:Times New Roman;font-size:10.00px;">foaf:knows</text>
</g>
<!-- http://bond007.org/RDF/mes_donnees.rdf#me&#45;&gt;http://bond007.org/RDF/mes_donnees.rdf#eve -->
<g id="edge32" class="edge"><title>http://bond007.org/RDF/mes_donnees.rdf#me&#45;&gt;http://bond007.org/RDF/mes_donnees.rdf#eve</title>
<path style="fill:none;stroke:blue;" d="M494,-315C539,-335 615,-368 682,-395 703,-403 726,-411 746,-419"/>
<polygon style="fill:blue;stroke:blue;" points="745.416,-422.479 756,-422 747.427,-415.774 745.416,-422.479"/>
<text text-anchor="middle" x="634" y="-392.5" style="font-family:Times New Roman;font-size:10.00px;">foaf:knows</text>
</g>
<!-- http://bond007.org/RDF/mes_donnees.rdf#white -->
<g id="node33" class="node"><title>http://bond007.org/RDF/mes_donnees.rdf#white</title>
<a xlink:href="http://bond007.org/RDF/mes_donnees.rdf#white" xlink:title="foaf:Person:\nhttp://bond007.org/RDF/mes_donnees.rdf#white">
<polygon style="fill:none;stroke:black;" points="928,-384 682,-384 682,-350 928,-350 928,-384"/>
<text text-anchor="middle" x="805" y="-371" style="font-family:Times New Roman;font-size:10.00px;fill:blue;">foaf:Person:</text>
<text text-anchor="middle" x="805" y="-358" style="font-family:Times New Roman;font-size:10.00px;fill:blue;">http://bond007.org/RDF/mes_donnees.rdf#white</text>
</a>
</g>
<!-- http://bond007.org/RDF/mes_donnees.rdf#me&#45;&gt;http://bond007.org/RDF/mes_donnees.rdf#white -->
<g id="edge34" class="edge"><title>http://bond007.org/RDF/mes_donnees.rdf#me&#45;&gt;http://bond007.org/RDF/mes_donnees.rdf#white</title>
<path style="fill:none;stroke:blue;" d="M539,-315C558,-319 578,-323 597,-327 632,-334 671,-342 706,-348"/>
<polygon style="fill:blue;stroke:blue;" points="705.508,-351.471 716,-350 706.881,-344.607 705.508,-351.471"/>
<text text-anchor="middle" x="634" y="-342.5" style="font-family:Times New Roman;font-size:10.00px;">foaf:knows</text>
</g>
<!-- http://bond007.org/ -->
<g id="node35" class="node"><title>http://bond007.org/</title>
<a xlink:href="http://bond007.org/" xlink:title="http://bond007.org/">
<polygon style="fill:none;stroke:black;" points="859,-328.5 751,-328.5 751,-307.5 859,-307.5 859,-328.5"/>
<text text-anchor="middle" x="805" y="-315.5" style="font-family:Times New Roman;font-size:10.00px;fill:blue;">http://bond007.org/</text>
</a>
</g>
<!-- http://bond007.org/RDF/mes_donnees.rdf#me&#45;&gt;http://bond007.org/ -->
<g id="edge36" class="edge"><title>http://bond007.org/RDF/mes_donnees.rdf#me&#45;&gt;http://bond007.org/</title>
<path style="fill:none;stroke:blue;" d="M574,-305C630,-309 694,-312 741,-314"/>
<polygon style="fill:blue;stroke:blue;" points="740.701,-317.488 751,-315 741.398,-310.522 740.701,-317.488"/>
<text text-anchor="middle" x="634" y="-312.5" style="font-family:Times New Roman;font-size:10.00px;">foaf:homepage</text>
</g>
<!-- &quot;James Bond&quot; -->
<g id="node37" class="node"><title>&quot;James Bond&quot;</title>
<text text-anchor="middle" x="805" y="-265.5" style="font-family:Times New Roman;font-size:10.00px;">&quot;James Bond&quot;</text>
</g>
<!-- http://bond007.org/RDF/mes_donnees.rdf#me&#45;&gt;&quot;James Bond&quot; -->
<g id="edge38" class="edge"><title>http://bond007.org/RDF/mes_donnees.rdf#me&#45;&gt;&quot;James Bond&quot;</title>
<path style="fill:none;stroke:blue;" d="M574,-288C635,-282 707,-276 754,-272"/>
<polygon style="fill:blue;stroke:blue;" points="754.398,-275.478 764,-271 753.701,-268.512 754.398,-275.478"/>
<text text-anchor="middle" x="634" y="-287.5" style="font-family:Times New Roman;font-size:10.00px;">foaf:name</text>
</g>
<!-- http://bond007.org/RDF/mes_donnees.rdf#badguys -->
<g id="node16" class="node"><title>http://bond007.org/RDF/mes_donnees.rdf#badguys</title>
<a xlink:href="http://bond007.org/RDF/mes_donnees.rdf#badguys" xlink:title="foaf:Group:\nhttp://bond007.org/RDF/mes_donnees.rdf#badguys">
<polygon style="fill:none;stroke:black;" points="586,-175 324,-175 324,-141 586,-141 586,-175"/>
<text text-anchor="middle" x="455" y="-162" style="font-family:Times New Roman;font-size:10.00px;fill:blue;">foaf:Group:</text>
<text text-anchor="middle" x="455" y="-149" style="font-family:Times New Roman;font-size:10.00px;fill:blue;">http://bond007.org/RDF/mes_donnees.rdf#badguys</text>
</a>
</g>
<!-- http://bond007.org/RDF/mes_donnees.rdf#badguys&#45;&gt;http://bond007.org/RDF/mes_donnees.rdf#ernst -->
<g id="edge14" class="edge"><title>http://bond007.org/RDF/mes_donnees.rdf#badguys&#45;&gt;http://bond007.org/RDF/mes_donnees.rdf#ernst</title>
<path style="fill:none;stroke:blue;" d="M586,-151C614,-151 644,-153 671,-158 703,-163 738,-177 764,-190"/>
<polygon style="fill:blue;stroke:blue;" points="762.44,-193.137 773,-194 765.283,-186.74 762.44,-193.137"/>
<text text-anchor="middle" x="634" y="-161.5" style="font-family:Times New Roman;font-size:10.00px;">foaf:member</text>
</g>
<!-- http://bond007.org/RDF/mes_donnees.rdf#badguys&#45;&gt;http://bond007.org/RDF/mes_donnees.rdf#auric -->
<g id="edge18" class="edge"><title>http://bond007.org/RDF/mes_donnees.rdf#badguys&#45;&gt;http://bond007.org/RDF/mes_donnees.rdf#auric</title>
<path style="fill:none;stroke:blue;" d="M563,-141C571,-138 579,-134 586,-130 593,-127 591,-121 597,-118 628,-105 639,-118 671,-118 671,-118 671,-118 672,-118"/>
<polygon style="fill:blue;stroke:blue;" points="672,-121.5 682,-118 672,-114.5 672,-121.5"/>
<text text-anchor="middle" x="634" y="-125.5" style="font-family:Times New Roman;font-size:10.00px;">foaf:member</text>
</g>
<!-- http://bond007.org/RDF/mes_donnees.rdf#greene -->
<g id="node19" class="node"><title>http://bond007.org/RDF/mes_donnees.rdf#greene</title>
<a xlink:href="http://bond007.org/RDF/mes_donnees.rdf#greene" xlink:title="foaf:Person:\nhttp://bond007.org/RDF/mes_donnees.rdf#greene">
<polygon style="fill:none;stroke:black;" points="1327,-179 1073,-179 1073,-145 1327,-145 1327,-179"/>
<text text-anchor="middle" x="1200" y="-166" style="font-family:Times New Roman;font-size:10.00px;fill:blue;">foaf:Person:</text>
<text text-anchor="middle" x="1200" y="-153" style="font-family:Times New Roman;font-size:10.00px;fill:blue;">http://bond007.org/RDF/mes_donnees.rdf#greene</text>
</a>
</g>
<!-- http://bond007.org/RDF/mes_donnees.rdf#badguys&#45;&gt;http://bond007.org/RDF/mes_donnees.rdf#greene -->
<g id="edge16" class="edge"><title>http://bond007.org/RDF/mes_donnees.rdf#badguys&#45;&gt;http://bond007.org/RDF/mes_donnees.rdf#greene</title>
<path style="fill:none;stroke:blue;" d="M568,-141C574,-138 580,-134 586,-130 595,-124 589,-115 597,-108 628,-83 644,-90 682,-84 791,-70 820,-74 928,-84 988,-90 1014,-72 1061,-109 1071,-117 1063,-127 1072,-134 1074,-136 1077,-138 1080,-140"/>
<polygon style="fill:blue;stroke:blue;" points="1078.56,-143.203 1089,-145 1081.96,-137.084 1078.56,-143.203"/>
<text text-anchor="middle" x="805" y="-91.5" style="font-family:Times New Roman;font-size:10.00px;">foaf:member</text>
</g>
<!-- http://quantum.com -->
<g id="node28" class="node"><title>http://quantum.com</title>
<a xlink:href="http://quantum.com" xlink:title="http://quantum.com">
<polygon style="fill:none;stroke:black;" points="1914,-248.5 1802,-248.5 1802,-227.5 1914,-227.5 1914,-248.5"/>
<text text-anchor="middle" x="1858" y="-235.5" style="font-family:Times New Roman;font-size:10.00px;fill:blue;">http://quantum.com</text>
</a>
</g>
<!-- http://bond007.org/RDF/mes_donnees.rdf#greene&#45;&gt;http://quantum.com -->
<g id="edge42" class="edge"><title>http://bond007.org/RDF/mes_donnees.rdf#greene&#45;&gt;http://quantum.com</title>
<path style="fill:none;stroke:blue;" d="M1294,-179C1306,-182 1317,-186 1328,-190 1334,-191 1334,-194 1339,-196 1496,-247 1691,-247 1792,-242"/>
<polygon style="fill:blue;stroke:blue;" points="1792,-245.5 1802,-242 1792,-238.5 1792,-245.5"/>
<text text-anchor="middle" x="1597" y="-246.5" style="font-family:Times New Roman;font-size:10.00px;">foaf:interest</text>
</g>
<!-- http://greene_planet.com -->
<g id="node39" class="node"><title>http://greene_planet.com</title>
<a xlink:href="http://greene_planet.com" xlink:title="http://greene_planet.com">
<polygon style="fill:none;stroke:black;" points="1666,-148.5 1528,-148.5 1528,-127.5 1666,-127.5 1666,-148.5"/>
<text text-anchor="middle" x="1597" y="-135.5" style="font-family:Times New Roman;font-size:10.00px;fill:blue;">http://greene_planet.com</text>
</a>
</g>
<!-- http://bond007.org/RDF/mes_donnees.rdf#greene&#45;&gt;http://greene_planet.com -->
<g id="edge40" class="edge"><title>http://bond007.org/RDF/mes_donnees.rdf#greene&#45;&gt;http://greene_planet.com</title>
<path style="fill:none;stroke:blue;" d="M1318,-145C1325,-144 1332,-144 1339,-143 1399,-139 1467,-137 1518,-137"/>
<polygon style="fill:blue;stroke:blue;" points="1518,-140.5 1528,-137 1518,-133.5 1518,-140.5"/>
<text text-anchor="middle" x="1400" y="-147.5" style="font-family:Times New Roman;font-size:10.00px;">foaf:workplaceHomepage</text>
</g>
<!-- http://bond007.org/RDF/mes_donnees.rdf#mitch -->
<g id="node43" class="node"><title>http://bond007.org/RDF/mes_donnees.rdf#mitch</title>
<a xlink:href="http://bond007.org/RDF/mes_donnees.rdf#mitch" xlink:title="foaf:Person:\nhttp://bond007.org/RDF/mes_donnees.rdf#mitch">
<polygon style="fill:none;stroke:black;" points="1721,-204 1473,-204 1473,-170 1721,-170 1721,-204"/>
<text text-anchor="middle" x="1597" y="-191" style="font-family:Times New Roman;font-size:10.00px;fill:blue;">foaf:Person:</text>
<text text-anchor="middle" x="1597" y="-178" style="font-family:Times New Roman;font-size:10.00px;fill:blue;">http://bond007.org/RDF/mes_donnees.rdf#mitch</text>
</a>
</g>
<!-- http://bond007.org/RDF/mes_donnees.rdf#greene&#45;&gt;http://bond007.org/RDF/mes_donnees.rdf#mitch -->
<g id="edge44" class="edge"><title>http://bond007.org/RDF/mes_donnees.rdf#greene&#45;&gt;http://bond007.org/RDF/mes_donnees.rdf#mitch</title>
<path style="fill:none;stroke:blue;" d="M1328,-170C1371,-173 1419,-176 1462,-178"/>
<polygon style="fill:blue;stroke:blue;" points="1461.7,-181.488 1472,-179 1462.4,-174.522 1461.7,-181.488"/>
<text text-anchor="middle" x="1400" y="-181.5" style="font-family:Times New Roman;font-size:10.00px;">foaf:knows</text>
</g>
<!-- &quot;Dominic Greene&quot; -->
<g id="node45" class="node"><title>&quot;Dominic Greene&quot;</title>
<text text-anchor="middle" x="1597" y="-85.5" style="font-family:Times New Roman;font-size:10.00px;">&quot;Dominic Greene&quot;</text>
</g>
<!-- http://bond007.org/RDF/mes_donnees.rdf#greene&#45;&gt;&quot;Dominic Greene&quot; -->
<g id="edge46" class="edge"><title>http://bond007.org/RDF/mes_donnees.rdf#greene&#45;&gt;&quot;Dominic Greene&quot;</title>
<path style="fill:none;stroke:blue;" d="M1305,-145C1313,-142 1321,-138 1328,-134 1335,-131 1333,-126 1339,-122 1401,-90 1482,-85 1536,-85"/>
<polygon style="fill:blue;stroke:blue;" points="1536,-88.5001 1546,-85 1536,-81.5001 1536,-88.5001"/>
<text text-anchor="middle" x="1400" y="-129.5" style="font-family:Times New Roman;font-size:10.00px;">foaf:name</text>
</g>
<!-- http://bond007.org/RDF/mes_donnees.rdf#mi6 -->
<g id="node21" class="node"><title>http://bond007.org/RDF/mes_donnees.rdf#mi6</title>
<a xlink:href="http://bond007.org/RDF/mes_donnees.rdf#mi6" xlink:title="foaf:Organization:\nhttp://bond007.org/RDF/mes_donnees.rdf#mi6">
<polygon style="fill:none;stroke:black;" points="240,-172 9.9476e-14,-172 0,-138 240,-138 240,-172"/>
<text text-anchor="middle" x="120" y="-159" style="font-family:Times New Roman;font-size:10.00px;fill:blue;">foaf:Organization:</text>
<text text-anchor="middle" x="120" y="-146" style="font-family:Times New Roman;font-size:10.00px;fill:blue;">http://bond007.org/RDF/mes_donnees.rdf#mi6</text>
</a>
</g>
<!-- http://bond007.org/RDF/mes_donnees.rdf#mi6&#45;&gt;http://bond007.org/RDF/mes_donnees.rdf#eve -->
<g id="edge20" class="edge"><title>http://bond007.org/RDF/mes_donnees.rdf#mi6&#45;&gt;http://bond007.org/RDF/mes_donnees.rdf#eve</title>
<path style="fill:none;stroke:blue;" d="M137,-172C171,-205 248,-278 324,-326 437,-396 467,-421 597,-449 622,-454 649,-456 675,-455"/>
<polygon style="fill:blue;stroke:blue;" points="675,-458.5 685,-455 675,-451.5 675,-458.5"/>
<text text-anchor="middle" x="455" y="-449.5" style="font-family:Times New Roman;font-size:10.00px;">foaf:member</text>
</g>
<!-- http://bond007.org/RDF/mes_donnees.rdf#mi6&#45;&gt;http://bond007.org/RDF/mes_donnees.rdf#me -->
<g id="edge22" class="edge"><title>http://bond007.org/RDF/mes_donnees.rdf#mi6&#45;&gt;http://bond007.org/RDF/mes_donnees.rdf#me</title>
<path style="fill:none;stroke:blue;" d="M160,-172C222,-199 339,-248 406,-277"/>
<polygon style="fill:blue;stroke:blue;" points="404.44,-280.137 415,-281 407.283,-273.74 404.44,-280.137"/>
<text text-anchor="middle" x="282" y="-237.5" style="font-family:Times New Roman;font-size:10.00px;">foaf:member</text>
</g>
<!-- &quot;MI&#45;6&quot; -->
<g id="node25" class="node"><title>&quot;MI&#45;6&quot;</title>
<text text-anchor="middle" x="455" y="-98.5" style="font-family:Times New Roman;font-size:10.00px;">&quot;MI&#45;6&quot;</text>
</g>
<!-- http://bond007.org/RDF/mes_donnees.rdf#mi6&#45;&gt;&quot;MI&#45;6&quot; -->
<g id="edge24" class="edge"><title>http://bond007.org/RDF/mes_donnees.rdf#mi6&#45;&gt;&quot;MI&#45;6&quot;</title>
<path style="fill:none;stroke:blue;" d="M226,-138C292,-127 372,-114 418,-107"/>
<polygon style="fill:blue;stroke:blue;" points="418.881,-110.393 428,-105 417.508,-103.529 418.881,-110.393"/>
<text text-anchor="middle" x="282" y="-138.5" style="font-family:Times New Roman;font-size:10.00px;">foaf:nick</text>
</g>
<!-- &quot;Secret Intelligence Service&quot; -->
<g id="node27" class="node"><title>&quot;Secret Intelligence Service&quot;</title>
<text text-anchor="middle" x="455" y="-40.5" style="font-family:Times New Roman;font-size:10.00px;">&quot;Secret Intelligence Service&quot;</text>
</g>
<!-- http://bond007.org/RDF/mes_donnees.rdf#mi6&#45;&gt;&quot;Secret Intelligence Service&quot; -->
<g id="edge26" class="edge"><title>http://bond007.org/RDF/mes_donnees.rdf#mi6&#45;&gt;&quot;Secret Intelligence Service&quot;</title>
<path style="fill:none;stroke:blue;" d="M157,-138C197,-120 264,-91 324,-72 339,-68 355,-64 370,-60"/>
<polygon style="fill:blue;stroke:blue;" points="370.881,-63.3933 380,-58 369.508,-56.5292 370.881,-63.3933"/>
<text text-anchor="middle" x="282" y="-104.5" style="font-family:Times New Roman;font-size:10.00px;">foaf:name</text>
</g>
<!-- http://bond007.org/RDF/mes_donnees.rdf#white&#45;&gt;http://bond007.org/RDF/mes_donnees.rdf#greene -->
<g id="edge52" class="edge"><title>http://bond007.org/RDF/mes_donnees.rdf#white&#45;&gt;http://bond007.org/RDF/mes_donnees.rdf#greene</title>
<path style="fill:none;stroke:blue;" d="M901,-350C911,-347 920,-343 928,-339 934,-335 934,-332 939,-329 990,-292 1026,-310 1061,-259 1079,-233 1051,-212 1072,-190 1074,-188 1075,-187 1077,-185"/>
<polygon style="fill:blue;stroke:blue;" points="1079.1,-187.8 1085,-179 1074.9,-182.2 1079.1,-187.8"/>
<text text-anchor="middle" x="1000" y="-332.5" style="font-family:Times New Roman;font-size:10.00px;">foaf:knows</text>
</g>
<!-- http://white.uk/ -->
<g id="node38" class="node"><title>http://white.uk/</title>
<a xlink:href="http://white.uk/" xlink:title="http://white.uk/">
<polygon style="fill:none;stroke:black;" points="1243,-399.5 1157,-399.5 1157,-378.5 1243,-378.5 1243,-399.5"/>
<text text-anchor="middle" x="1200" y="-386.5" style="font-family:Times New Roman;font-size:10.00px;fill:blue;">http://white.uk/</text>
</a>
</g>
<!-- http://bond007.org/RDF/mes_donnees.rdf#white&#45;&gt;http://white.uk/ -->
<g id="edge54" class="edge"><title>http://bond007.org/RDF/mes_donnees.rdf#white&#45;&gt;http://white.uk/</title>
<path style="fill:none;stroke:blue;" d="M928,-374C1001,-378 1090,-382 1146,-385"/>
<polygon style="fill:blue;stroke:blue;" points="1145.7,-388.488 1156,-386 1146.4,-381.522 1145.7,-388.488"/>
<text text-anchor="middle" x="1000" y="-382.5" style="font-family:Times New Roman;font-size:10.00px;">foaf:homepage</text>
</g>
<!-- &quot;Bill White&quot; -->
<g id="node52" class="node"><title>&quot;Bill White&quot;</title>
<text text-anchor="middle" x="1200" y="-336.5" style="font-family:Times New Roman;font-size:10.00px;">&quot;Bill White&quot;</text>
</g>
<!-- http://bond007.org/RDF/mes_donnees.rdf#white&#45;&gt;&quot;Bill White&quot; -->
<g id="edge56" class="edge"><title>http://bond007.org/RDF/mes_donnees.rdf#white&#45;&gt;&quot;Bill White&quot;</title>
<path style="fill:none;stroke:blue;" d="M928,-357C932,-356 935,-356 939,-356 1016,-350 1105,-345 1157,-342"/>
<polygon style="fill:blue;stroke:blue;" points="1157.4,-345.478 1167,-341 1156.7,-338.512 1157.4,-345.478"/>
<text text-anchor="middle" x="1000" y="-359.5" style="font-family:Times New Roman;font-size:10.00px;">foaf:name</text>
</g>
<!-- http://bond007.org/RDF/mes_donnees.rdf#mitch&#45;&gt;http://quantum.com -->
<g id="edge48" class="edge"><title>http://bond007.org/RDF/mes_donnees.rdf#mitch&#45;&gt;http://quantum.com</title>
<path style="fill:none;stroke:blue;" d="M1721,-204C1744,-208 1768,-213 1791,-218 1801,-219 1810,-222 1819,-225"/>
<polygon style="fill:blue;stroke:blue;" points="1818.42,-228.479 1829,-228 1820.43,-221.774 1818.42,-228.479"/>
<text text-anchor="middle" x="1762" y="-221.5" style="font-family:Times New Roman;font-size:10.00px;">foaf:interest</text>
</g>
<!-- &quot;Craig Mitchell&quot; -->
<g id="node48" class="node"><title>&quot;Craig Mitchell&quot;</title>
<text text-anchor="middle" x="1858" y="-175.5" style="font-family:Times New Roman;font-size:10.00px;">&quot;Craig Mitchell&quot;</text>
</g>
<!-- http://bond007.org/RDF/mes_donnees.rdf#mitch&#45;&gt;&quot;Craig Mitchell&quot; -->
<g id="edge50" class="edge"><title>http://bond007.org/RDF/mes_donnees.rdf#mitch&#45;&gt;&quot;Craig Mitchell&quot;</title>
<path style="fill:none;stroke:blue;" d="M1722,-178C1725,-178 1729,-178 1733,-178 1756,-177 1782,-177 1804,-177"/>
<polygon style="fill:blue;stroke:blue;" points="1804,-180.5 1814,-177 1804,-173.5 1804,-180.5"/>
<text text-anchor="middle" x="1762" y="-181.5" style="font-family:Times New Roman;font-size:10.00px;">foaf:name</text>
</g>
</g>
</svg>
